HIERARCHY
ROOT Hips
{
    OFFSET 0.000000 0.000000 0.000000
    CHANNELS 6 Xposition Yposition Zposition Zrotation Xrotation Yrotation
    JOINT Spine
    {
        OFFSET -0.000001 8.887078 0.000002
        CHANNELS 3 Zrotation Xrotation Yrotation
        JOINT Spine1
        {
            OFFSET -0.000003 21.638180 0.000002
            CHANNELS 3 Zrotation Xrotation Yrotation
            JOINT Neck
            {
                OFFSET 0.000003 21.638121 -0.000002
                CHANNELS 3 Zrotation Xrotation Yrotation
                JOINT Head
                {
                    OFFSET 0.000000 14.006821 1.931974
                    CHANNELS 3 Zrotation Xrotation Yrotation
                    End Site
                    {
                        OFFSET 0.000000 19.319742 0.000000
                    }
                }
            }
            JOINT LeftShoulder
            {
                OFFSET 3.863588 16.797495 -0.872139
                CHANNELS 3 Zrotation Xrotation Yrotation
                JOINT LeftArm
                {
                    OFFSET 12.459795 -0.000004 0.000000
                    CHANNELS 3 Zrotation Xrotation Yrotation
                    JOINT LeftForeArm
                    {
                        OFFSET 27.492708 0.000006 0.000000
                        CHANNELS 3 Zrotation Xrotation Yrotation
                        JOINT LeftHand
                        {
                            OFFSET 26.040804 -0.000001 0.000003
                            CHANNELS 3 Zrotation Xrotation Yrotation
                            JOINT LeftHandThumb1
                            {
                                OFFSET 2.018906 -2.294222 3.211913
                                CHANNELS 3 Zrotation Xrotation Yrotation
                                JOINT LeftHandThumb2
                                {
                                    OFFSET 3.049263 0.000004 -0.000003
                                    CHANNELS 3 Zrotation Xrotation Yrotation
                                    JOINT LeftHandThumb3
                                    {
                                        OFFSET 2.606232 0.000000 -0.000005
                                        CHANNELS 3 Zrotation Xrotation Yrotation
                                        End Site
                                        {
                                            OFFSET 2.517584 0.000000 0.000000
                                        }
                                    }
                                }
                            }
                            JOINT LeftHandIndex1
                            {
                                OFFSET 8.259192 0.000004 3.211907
                                CHANNELS 3 Zrotation Xrotation Yrotation
                                JOINT LeftHandIndex2
                                {
                                    OFFSET 4.588440 0.000000 -0.000001
                                    CHANNELS 3 Zrotation Xrotation Yrotation
                                    JOINT LeftHandIndex3
                                    {
                                        OFFSET 2.294220 0.000000 0.000002
                                        CHANNELS 3 Zrotation Xrotation Yrotation
                                        End Site
                                        {
                                            OFFSET 2.216187 0.000000 0.000000
                                        }
                                    }
                                }
                            }
                            JOINT LeftHandMiddle1
                            {
                                OFFSET 8.259191 0.000003 1.064523
                                CHANNELS 3 Zrotation Xrotation Yrotation
                                JOINT LeftHandMiddle2
                                {
                                    OFFSET 5.047283 0.000000 0.000001
                                    CHANNELS 3 Zrotation Xrotation Yrotation
                                    JOINT LeftHandMiddle3
                                    {
                                        OFFSET 2.753063 0.000000 -0.000002
                                        CHANNELS 3 Zrotation Xrotation Yrotation
                                        End Site
                                        {
                                            OFFSET 2.659420 0.000000 0.000000
                                        }
                                    }
                                }
                            }
                            JOINT LeftHandRing1
                            {
                                OFFSET 7.800339 0.000001 -1.064517
                                CHANNELS 3 Zrotation Xrotation Yrotation
                                JOINT LeftHandRing2
                                {
                                    OFFSET 4.588440 -0.000001 -0.000001
                                    CHANNELS 3 Zrotation Xrotation Yrotation
                                    JOINT LeftHandRing3
                                    {
                                        OFFSET 2.294220 -0.000000 0.000002
                                        CHANNELS 3 Zrotation Xrotation Yrotation
                                        End Site
                                        {
                                            OFFSET 2.216187 0.000000 0.000000
                                        }
                                    }
                                }
                            }
                            JOINT LeftHandPinky1
                            {
                                OFFSET 7.341498 -0.000004 -3.211910
                                CHANNELS 3 Zrotation Xrotation Yrotation
                                JOINT LeftHandPinky2
                                {
                                    OFFSET 3.670749 0.000001 0.000002
                                    CHANNELS 3 Zrotation Xrotation Yrotation
                                    JOINT LeftHandPinky3
                                    {
                                        OFFSET 1.835372 0.000002 0.000001
                                        CHANNELS 3 Zrotation Xrotation Yrotation
                                        End Site
                                        {
                                            OFFSET 1.772944 0.000000 0.000000
                                        }
                                    }
                                }
                            }
                        }
                    }
                }
            }
            JOINT RightShoulder
            {
                OFFSET -3.863591 16.797497 -0.872141
                CHANNELS 3 Zrotation Xrotation Yrotation
                JOINT RightArm
                {
                    OFFSET -12.459801 0.000003 -0.000001
                    CHANNELS 3 Zrotation Xrotation Yrotation
                    JOINT RightForeArm
                    {
                        OFFSET -27.492693 0.000006 -0.000003
                        CHANNELS 3 Zrotation Xrotation Yrotation
                        JOINT RightHand
                        {
                            OFFSET -26.040798 -0.000003 0.000003
                            CHANNELS 3 Zrotation Xrotation Yrotation
                            JOINT RightHandThumb1
                            {
                                OFFSET -2.018912 -2.294218 3.211907
                                CHANNELS 3 Zrotation Xrotation Yrotation
                                JOINT RightHandThumb2
                                {
                                    OFFSET -3.049258 -0.000000 -0.000002
                                    CHANNELS 3 Zrotation Xrotation Yrotation
                                    JOINT RightHandThumb3
                                    {
                                        OFFSET -2.606230 -0.000001 0.000001
                                        CHANNELS 3 Zrotation Xrotation Yrotation
                                        End Site
                                        {
                                            OFFSET -2.517584 0.000000 0.000000
                                        }
                                    }
                                }
                            }
                            JOINT RightHandIndex1
                            {
                                OFFSET -8.259190 -0.000003 3.211910
                                CHANNELS 3 Zrotation Xrotation Yrotation
                                JOINT RightHandIndex2
                                {
                                    OFFSET -4.588441 -0.000003 0.000001
                                    CHANNELS 3 Zrotation Xrotation Yrotation
                                    JOINT RightHandIndex3
                                    {
                                        OFFSET -2.294220 -0.000002 -0.000002
                                        CHANNELS 3 Zrotation Xrotation Yrotation
                                        End Site
                                        {
                                            OFFSET -2.216187 0.000000 0.000000
                                        }
                                    }
                                }
                            }
                            JOINT RightHandMiddle1
                            {
                                OFFSET -8.259192 0.000003 1.064521
                                CHANNELS 3 Zrotation Xrotation Yrotation
                                JOINT RightHandMiddle2
                                {
                                    OFFSET -5.047279 0.000001 -0.000001
                                    CHANNELS 3 Zrotation Xrotation Yrotation
                                    JOINT RightHandMiddle3
                                    {
                                        OFFSET -2.753060 0.000003 0.000001
                                        CHANNELS 3 Zrotation Xrotation Yrotation
                                        End Site
                                        {
                                            OFFSET -2.659420 0.000000 0.000000
                                        }
                                    }
                                }
                            }
                            JOINT RightHandRing1
                            {
                                OFFSET -7.800337 0.000000 -1.064518
                                CHANNELS 3 Zrotation Xrotation Yrotation
                                JOINT RightHandRing2
                                {
                                    OFFSET -4.588441 -0.000003 0.000000
                                    CHANNELS 3 Zrotation Xrotation Yrotation
                                    JOINT RightHandRing3
                                    {
                                        OFFSET -2.294219 -0.000002 -0.000003
                                        CHANNELS 3 Zrotation Xrotation Yrotation
                                        End Site
                                        {
                                            OFFSET -2.216187 0.000000 0.000000
                                        }
                                    }
                                }
                            }
                            JOINT RightHandPinky1
                            {
                                OFFSET -7.341496 0.000001 -3.211911
                                CHANNELS 3 Zrotation Xrotation Yrotation
                                JOINT RightHandPinky2
                                {
                                    OFFSET -3.670748 0.000000 0.000002
                                    CHANNELS 3 Zrotation Xrotation Yrotation
                                    JOINT RightHandPinky3
                                    {
                                        OFFSET -1.835370 -0.000002 0.000002
                                        CHANNELS 3 Zrotation Xrotation Yrotation
                                        End Site
                                        {
                                            OFFSET -1.772944 0.000000 0.000000
                                        }
                                    }
                                }
                            }
                        }
                    }
                }
            }
        }
    }
    JOINT LeftUpLeg
    {
        OFFSET 9.659869 -0.000002 0.000002
        CHANNELS 3 Zrotation Xrotation Yrotation
        JOINT LeftLeg
        {
            OFFSET 0.000003 -49.892498 -0.000001
            CHANNELS 3 Zrotation Xrotation Yrotation
            JOINT LeftFoot
            {
                OFFSET 0.000001 -38.901695 0.000001
                CHANNELS 3 Zrotation Xrotation Yrotation
                JOINT LeftToeBase
                {
                    OFFSET 0.000002 -6.278910 14.489804
                    CHANNELS 3 Zrotation Xrotation Yrotation
                    End Site
                    {
                        OFFSET 0.000000 0.000000 3.863948
                    }
                }
            }
        }
    }
    JOINT RightUpLeg
    {
        OFFSET -9.659869 0.000002 -0.000002
        CHANNELS 3 Zrotation Xrotation Yrotation
        JOINT RightLeg
        {
            OFFSET -0.000002 -49.892494 -0.000001
            CHANNELS 3 Zrotation Xrotation Yrotation
            JOINT RightFoot
            {
                OFFSET -0.000003 -38.901695 -0.000004
                CHANNELS 3 Zrotation Xrotation Yrotation
                JOINT RightToeBase
                {
                    OFFSET -0.000001 -6.278909 14.489799
                    CHANNELS 3 Zrotation Xrotation Yrotation
                    End Site
                    {
                        OFFSET 0.000000 0.000000 3.863948
                    }
                }
            }
        }
    }
}
MOTION
Frames:    4
Frame Time:    0.008333
88.663208    95.491760    -92.703674    -0.354764    1.115654    -0.579975    0.009218    -4.270278    -0.380154    0.046090    -4.270278    -0.377409    -0.999524    8.911756    -1.391173    -0.999524    8.911755    -1.391173    -29.912411    6.968348    4.366124    -44.324409    7.571516    -4.802352    -2.143763    -8.647453    -13.980542    11.069285    2.610678    13.558334    47.448196    38.866398    -34.355045    -35.000023    -0.000002    0.000000    -0.000000    0.000000    -0.000000    -0.000004    9.999993    0.000001    -0.000000    0.000000    -0.000000    -0.000000    0.000000    -0.000000    -0.000000    0.000000    -0.000000    -0.000000    0.000000    -0.000000    -0.000000    0.000000    -0.000000    -0.000000    0.000000    -0.000000    -0.000000    0.000000    -0.000000    -0.000000    0.000000    -0.000000    -0.000003    -9.999993    -0.000000    -0.000000    0.000000    -0.000000    -0.000000    0.000000    -0.000000    28.174084    10.965164    -5.576392    44.044788    13.206815    6.018548    2.838423    -5.817922    26.064003    -7.935162    0.908328    -6.954183    -47.448219    38.866402    34.355045    35.000023    0.000005    0.000005    -0.000000    0.000000    -0.000000    -0.000005    9.999993    -0.000003    -0.000000    0.000000    -0.000000    -0.000000    0.000000    -0.000000    -0.000000    0.000000    -0.000000    -0.000000    0.000000    -0.000000    -0.000000    0.000000    -0.000000    -0.000000    0.000000    -0.000000    -0.000000    0.000000    -0.000000    -0.000000    0.000000    -0.000000    -0.000012    -9.999992    -0.000004    -0.000000    0.000000    -0.000000    -0.000000    0.000000    -0.000000    2.563239    -0.149523    3.711362    -0.000000    4.876889    -0.000000    -1.815241    -8.277570    6.162257    -0.000000    -2.077050    -0.000000    -2.015321    2.306829    -8.320906    0.000000    7.931358    -0.000000    0.299758    -12.637626    -14.479643    0.000000    -3.307167    0.000002    
89.013901    95.049362    -91.064713    -0.070136    0.259403    -0.244196    0.060215    -3.659661    -0.142021    0.301073    -3.659613    -0.126647    -1.889970    6.987540    -2.616296    -1.889969    6.987540    -2.616297    -23.866472    10.743570    3.565217    -48.832699    14.330795    -3.146252    -5.268167    -15.570038    -18.958704    3.178380    0.289353    8.146364    47.448196    38.866402    -34.355057    -35.000015    -0.000004    0.000008    -0.000000    0.000000    -0.000000    -0.000019    9.999993    -0.000002    -0.000000    0.000000    -0.000000    -0.000000    0.000000    -0.000000    -0.000000    0.000000    -0.000000    -0.000000    0.000000    -0.000000    -0.000000    0.000000    -0.000000    -0.000000    0.000000    -0.000000    -0.000000    0.000000    -0.000000    -0.000000    0.000000    -0.000000    -0.000012    -9.999994    -0.000002    -0.000000    0.000000    -0.000000    -0.000000    0.000000    -0.000000    21.217627    15.794272    -2.110832    45.358414    21.759600    5.334355    5.564775    -9.420911    30.762253    -1.131967    -0.051642    -2.923185    -47.448196    38.866394    34.355034    35.000019    0.000008    0.000003    -0.000000    0.000000    -0.000000    -0.000000    9.999993    -0.000003    -0.000000    0.000000    -0.000000    -0.000000    0.000000    -0.000000    -0.000000    0.000000    -0.000000    -0.000000    0.000000    -0.000000    -0.000000    0.000000    -0.000000    -0.000000    0.000000    -0.000000    -0.000000    0.000000    -0.000000    -0.000000    0.000000    -0.000000    0.000000    -9.999994    0.000000    -0.000000    0.000000    -0.000000    -0.000000    0.000000    -0.000000    2.113171    0.117285    2.016804    0.000000    8.854387    0.000000    -2.964387    -12.210406    7.622622    0.000000    -2.670314    -0.000000    -2.492255    2.637222    -5.373525    0.000000    11.932153    0.000002    0.315195    -16.733461    -19.333740    0.000001    -3.468498    0.000005    
89.248344    94.619316    -90.529099    0.212122    -1.338360    -0.292698    0.015760    -2.620541    -0.468505    0.078801    -2.620539    -0.465623    -2.013169    6.268712    -2.768785    -2.013170    6.268712    -2.768787    -16.640081    13.204075    2.203664    -53.775326    23.462690    -2.942527    -10.958975    -24.231337    -25.257990    -6.750231    -0.617055    2.956658    47.448196    38.866394    -34.355030    -35.000023    0.000004    -0.000001    -0.000000    0.000000    -0.000000    0.000005    9.999993    0.000001    -0.000000    0.000000    -0.000000    -0.000000    0.000000    -0.000000    -0.000000    0.000000    -0.000000    -0.000000    0.000000    -0.000000    -0.000000    0.000000    -0.000000    -0.000000    0.000000    -0.000000    -0.000000    0.000000    -0.000000    -0.000000    0.000000    -0.000000    0.000005    -9.999992    -0.000000    -0.000000    0.000000    -0.000000    -0.000000    0.000000    -0.000000    14.527278    18.034988    0.606883    46.091751    31.544485    7.828454    10.876402    -16.060709    34.780739    7.643264    -0.067883    0.946554    -47.448204    38.866398    34.355042    35.000015    -0.000001    -0.000002    -0.000000    0.000000    -0.000000    -0.000000    9.999989    -0.000004    -0.000000    0.000000    -0.000000    -0.000000    0.000000    -0.000000    -0.000000    0.000000    -0.000000    -0.000000    0.000000    -0.000000    -0.000000    0.000000    -0.000000    -0.000000    0.000000    -0.000000    -0.000000    0.000000    -0.000000    -0.000000    0.000000    -0.000000    -0.000003    -9.999993    -0.000005    -0.000000    0.000000    -0.000000    -0.000000    0.000000    -0.000000    1.595746    0.116601    0.223376    -0.000000    13.658445    0.000000    -4.709546    -16.394327    9.090232    0.000001    -2.745450    -0.000004    -2.753980    2.919903    -1.857317    -0.000000    16.089226    -0.000000    1.481417    -20.876192    -22.933990    -0.000000    -2.810960    0.000000    
89.273300    94.309578    -90.389366    0.324077    -2.816917    -0.204602    -0.071980    -1.629761    -0.800955    -0.359898    -1.629730    -0.809143    -1.588092    5.975902    -2.492950    -1.588092    5.975903    -2.492950    -11.114803    13.162150    2.416291    -56.499260    31.968864    -4.579150    -16.023058    -32.449299    -28.157166    -14.165729    -0.354204    -0.059446    47.448215    38.866398    -34.355061    -35.000015    -0.000005    0.000005    -0.000000    0.000000    -0.000000    -0.000001    9.999992    -0.000002    -0.000000    0.000000    -0.000000    -0.000000    0.000000    -0.000000    -0.000000    0.000000    -0.000000    -0.000000    0.000000    -0.000000    -0.000000    0.000000    -0.000000    -0.000000    0.000000    -0.000000    -0.000000    0.000000    -0.000000    -0.000000    0.000000    -0.000000    0.000005    -9.999992    0.000001    -0.000000    0.000000    -0.000000    -0.000000    0.000000    -0.000000    10.071523    17.804737    0.922121    44.958302    39.510323    13.175607    15.960163    -24.043478    35.066704    14.938292    0.613768    3.407653    -47.448212    38.866402    34.355045    35.000015    0.000002    0.000006    -0.000000    0.000000    -0.000000    -0.000012    9.999990    -0.000003    -0.000000    0.000000    -0.000000    -0.000000    0.000000    -0.000000    -0.000000    0.000000    -0.000000    -0.000000    0.000000    -0.000000    -0.000000    0.000000    -0.000000    -0.000000    0.000000    -0.000000    -0.000000    0.000000    -0.000000    -0.000000    0.000000    -0.000000    -0.000016    -9.999995    -0.000005    -0.000000    0.000000    -0.000000    -0.000000    0.000000    -0.000000    1.347941    0.066371    -1.033189    0.000000    17.566742    0.000000    -6.381865    -19.227695    9.783537    0.000000    -2.038294    -0.000001    -2.768332    3.400088    -0.266895    0.000000    18.914015    0.000000    3.428345    -23.967087    -24.001011    -0.000000    -1.452243    0.000000    
